<svg width="142" height="60" viewBox="0 0 142 60" fill="none" xmlns="http://www.w3.org/2000/svg">
<path d="M32.0226 46.0129V24.1948H37.6517V46.0129H32.0226Z" fill="url(#paint0_linear_823_2459)"/>
<path d="M16.4188 46.6238C11.8224 46.6238 8.02608 45.0966 5.02971 42.042C2.03334 38.9875 0.535156 35.2202 0.535156 30.7402C0.535156 26.2311 2.03334 22.4638 5.02971 19.4384C8.02608 16.3838 11.8224 14.8566 16.4188 14.8566C19.1825 14.8566 21.7279 15.5111 24.0552 16.8202C26.4116 18.1002 28.2443 19.8457 29.5534 22.0566L24.3607 25.0675C23.6043 23.7002 22.5279 22.6384 21.1316 21.882C19.7352 21.0966 18.1643 20.7038 16.4188 20.7038C13.4515 20.7038 11.0515 21.6348 9.21881 23.4966C7.41517 25.3584 6.51335 27.7729 6.51335 30.7402C6.51335 33.6784 7.41517 36.0784 9.21881 37.9402C11.0515 39.802 13.4515 40.7329 16.4188 40.7329C18.1643 40.7329 19.7352 40.3548 21.1316 39.5984C22.557 38.8129 23.6334 37.7511 24.3607 36.4129L29.5534 39.4238C28.2443 41.6348 26.4261 43.3948 24.0988 44.7038C21.7716 45.9838 19.2116 46.6238 16.4188 46.6238Z" fill="url(#paint1_linear_823_2459)"/>
<path d="M49.0439 29.6057H53.9748V24.1948H49.0439V18.0857L43.4148 19.7875V24.1948H39.6184V29.6057H43.4148V38.682C43.4148 41.6784 44.2002 43.7584 45.7711 44.922C47.3711 46.0857 50.1057 46.4493 53.9748 46.0129V40.9075C52.8984 40.9657 51.9966 40.9802 51.2693 40.9511C50.5421 40.8929 49.9893 40.6893 49.6112 40.3402C49.233 39.9911 49.0439 39.4384 49.0439 38.682V29.6057Z" fill="url(#paint2_linear_823_2459)"/>
<path d="M56.6346 46.0129V24.1948H62.2637V46.0129H56.6346Z" fill="url(#paint3_linear_823_2459)"/>
<path fill-rule="evenodd" clip-rule="evenodd" d="M88.3177 24.1948H82.6886V26.7693C81.0013 24.6457 78.6304 23.5838 75.5759 23.5838C72.6668 23.5838 70.1649 24.7038 68.0704 26.9438C66.0049 29.1548 64.9722 31.8748 64.9722 35.1038C64.9722 38.3329 66.0049 41.0675 68.0704 43.3075C70.1649 45.5184 72.6668 46.6238 75.5759 46.6238C78.6304 46.6238 81.0013 45.562 82.6886 43.4384V46.0129H88.3177V24.1948ZM76.6231 41.2566C74.8777 41.2566 73.4377 40.6893 72.3031 39.5548C71.1686 38.3911 70.6013 36.9075 70.6013 35.1038C70.6013 33.3002 71.1686 31.8311 72.3031 30.6966C73.4377 29.5329 74.8777 28.9511 76.6231 28.9511C78.3686 28.9511 79.8086 29.5329 80.9431 30.6966C82.1068 31.8311 82.6886 33.3002 82.6886 35.1038C82.6886 36.9075 82.1068 38.3911 80.9431 39.5548C79.8086 40.6893 78.3686 41.2566 76.6231 41.2566Z" fill="url(#paint4_linear_823_2459)"/>
<path fill-rule="evenodd" clip-rule="evenodd" d="M104.811 23.5838C107.749 23.5838 110.251 24.7038 112.317 26.9438C114.411 29.1548 115.459 31.8748 115.459 35.1038C115.459 38.3329 114.411 41.0675 112.317 43.3075C110.251 45.5184 107.749 46.6238 104.811 46.6238C101.757 46.6238 99.4003 45.562 97.7421 43.4384V54.7402H92.113V24.1948H97.7421V26.7693C99.4003 24.6457 101.757 23.5838 104.811 23.5838ZM99.444 39.5548C100.579 40.6893 102.019 41.2566 103.764 41.2566C105.509 41.2566 106.949 40.6893 108.084 39.5548C109.248 38.3911 109.829 36.9075 109.829 35.1038C109.829 33.3002 109.248 31.8311 108.084 30.6966C106.949 29.5329 105.509 28.9511 103.764 28.9511C102.019 28.9511 100.579 29.5329 99.444 30.6966C98.3094 31.8311 97.7421 33.3002 97.7421 35.1038C97.7421 36.9075 98.3094 38.3911 99.444 39.5548Z" fill="url(#paint5_linear_823_2459)"/>
<path fill-rule="evenodd" clip-rule="evenodd" d="M138.323 26.9438C136.258 24.7038 133.756 23.5838 130.818 23.5838C127.763 23.5838 125.407 24.6457 123.748 26.7693V24.1948H118.119V54.7402H123.748V43.4384C125.407 45.562 127.763 46.6238 130.818 46.6238C133.756 46.6238 136.258 45.5184 138.323 43.3075C140.418 41.0675 141.465 38.3329 141.465 35.1038C141.465 31.8748 140.418 29.1548 138.323 26.9438ZM129.77 41.2566C128.025 41.2566 126.585 40.6893 125.45 39.5548C124.316 38.3911 123.748 36.9075 123.748 35.1038C123.748 33.3002 124.316 31.8311 125.45 30.6966C126.585 29.5329 128.025 28.9511 129.77 28.9511C131.516 28.9511 132.956 29.5329 134.09 30.6966C135.254 31.8311 135.836 33.3002 135.836 35.1038C135.836 36.9075 135.254 38.3911 134.09 39.5548C132.956 40.6893 131.516 41.2566 129.77 41.2566Z" fill="url(#paint6_linear_823_2459)"/>
<path d="M33.6652 19.4603C33.3271 19.0572 33.3252 18.4672 33.6794 18.0781C37.4125 13.9774 42.3105 11.6883 47.4065 11.6883C52.5025 11.6883 57.4005 13.9774 61.1335 18.0781C61.4877 18.4672 61.4859 19.0572 61.1478 19.4603C60.7143 19.9772 59.9202 19.9752 59.4544 19.4873C56.1332 16.0095 51.8535 14.0751 47.4065 14.0751C42.9595 14.0751 38.6798 16.0095 35.3586 19.4873C34.8928 19.9751 34.0987 19.9772 33.6652 19.4603Z" fill="#F6CF46"/>
<line x1="48.381" y1="0.974027" x2="48.381" y2="8.37663" stroke="#F6CF46" stroke-width="1.94805" stroke-linecap="round" stroke-linejoin="bevel"/>
<line x1="0.974027" y1="-0.974027" x2="8.37663" y2="-0.974027" transform="matrix(0.707107 -0.707106 0.707107 0.707106 55.9785 10.9091)" stroke="#F6CF46" stroke-width="1.94805" stroke-linecap="round" stroke-linejoin="bevel"/>
<line x1="0.974027" y1="-0.974027" x2="8.37663" y2="-0.974027" transform="matrix(0.707107 0.707106 -0.707107 0.707106 32.9124 4.67529)" stroke="#F6CF46" stroke-width="1.94805" stroke-linecap="round" stroke-linejoin="bevel"/>
<defs>
<linearGradient id="paint0_linear_823_2459" x1="182.948" y1="24.8585" x2="-0.901062" y2="27.1224" gradientUnits="userSpaceOnUse">
<stop stop-color="#2B659D"/>
<stop offset="0.484375" stop-color="#2B659D"/>
<stop offset="1" stop-color="#0E4172"/>
</linearGradient>
<linearGradient id="paint1_linear_823_2459" x1="182.948" y1="24.8585" x2="-0.901062" y2="27.1224" gradientUnits="userSpaceOnUse">
<stop stop-color="#2B659D"/>
<stop offset="0.484375" stop-color="#2B659D"/>
<stop offset="1" stop-color="#0E4172"/>
</linearGradient>
<linearGradient id="paint2_linear_823_2459" x1="182.948" y1="24.8585" x2="-0.901062" y2="27.1224" gradientUnits="userSpaceOnUse">
<stop stop-color="#2B659D"/>
<stop offset="0.484375" stop-color="#2B659D"/>
<stop offset="1" stop-color="#0E4172"/>
</linearGradient>
<linearGradient id="paint3_linear_823_2459" x1="182.948" y1="24.8585" x2="-0.901062" y2="27.1224" gradientUnits="userSpaceOnUse">
<stop stop-color="#2B659D"/>
<stop offset="0.484375" stop-color="#2B659D"/>
<stop offset="1" stop-color="#0E4172"/>
</linearGradient>
<linearGradient id="paint4_linear_823_2459" x1="182.948" y1="24.8585" x2="-0.901062" y2="27.1224" gradientUnits="userSpaceOnUse">
<stop stop-color="#2B659D"/>
<stop offset="0.484375" stop-color="#2B659D"/>
<stop offset="1" stop-color="#0E4172"/>
</linearGradient>
<linearGradient id="paint5_linear_823_2459" x1="182.948" y1="24.8585" x2="-0.901062" y2="27.1224" gradientUnits="userSpaceOnUse">
<stop stop-color="#2B659D"/>
<stop offset="0.484375" stop-color="#2B659D"/>
<stop offset="1" stop-color="#0E4172"/>
</linearGradient>
<linearGradient id="paint6_linear_823_2459" x1="182.948" y1="24.8585" x2="-0.901062" y2="27.1224" gradientUnits="userSpaceOnUse">
<stop stop-color="#2B659D"/>
<stop offset="0.484375" stop-color="#2B659D"/>
<stop offset="1" stop-color="#0E4172"/>
</linearGradient>
</defs>
</svg>
