<svg width="20" height="20" viewBox="0 0 20 20" fill="none" xmlns="http://www.w3.org/2000/svg">
<path d="M5 18.3333H15C15.663 18.3333 16.2989 18.0699 16.7678 17.6011C17.2366 17.1322 17.5 16.4963 17.5 15.8333V5.83329C17.5 5.39127 17.3244 4.96734 17.0118 4.65478C16.6993 4.34222 16.2754 4.16663 15.8333 4.16663H14.1667V2.49996C14.1667 2.27895 14.0789 2.06698 13.9226 1.9107C13.7663 1.75442 13.5543 1.66663 13.3333 1.66663C13.1123 1.66663 12.9004 1.75442 12.7441 1.9107C12.5878 2.06698 12.5 2.27895 12.5 2.49996V4.16663H7.5V2.49996C7.5 2.27895 7.4122 2.06698 7.25592 1.9107C7.09964 1.75442 6.88768 1.66663 6.66667 1.66663C6.44565 1.66663 6.23369 1.75442 6.07741 1.9107C5.92113 2.06698 5.83333 2.27895 5.83333 2.49996V4.16663H4.16667C3.72464 4.16663 3.30072 4.34222 2.98816 4.65478C2.67559 4.96734 2.5 5.39127 2.5 5.83329V15.8333C2.5 16.4963 2.76339 17.1322 3.23223 17.6011C3.70107 18.0699 4.33696 18.3333 5 18.3333ZM4.16667 10.4166C4.16667 10.3061 4.21057 10.2001 4.28871 10.122C4.36685 10.0439 4.47283 9.99996 4.58333 9.99996H15.4167C15.5272 9.99996 15.6332 10.0439 15.7113 10.122C15.7894 10.2001 15.8333 10.3061 15.8333 10.4166V15.8333C15.8333 16.0543 15.7455 16.2663 15.5893 16.4225C15.433 16.5788 15.221 16.6666 15 16.6666H5C4.77899 16.6666 4.56702 16.5788 4.41074 16.4225C4.25446 16.2663 4.16667 16.0543 4.16667 15.8333V10.4166Z" fill="#252323"/>
</svg>
