<svg width="25" height="27" viewBox="0 0 25 27" fill="none" xmlns="http://www.w3.org/2000/svg">
<path fill-rule="evenodd" clip-rule="evenodd" d="M9.70546 5.71864C10.5897 5.34053 11.5381 5.14587 12.496 5.14587C13.4538 5.14587 14.4022 5.34053 15.2865 5.71864C16.1707 6.0967 16.9732 6.65068 17.648 7.34868C19.0118 8.75566 19.7813 10.658 19.7893 12.6432C19.7972 14.5944 19.0691 16.4716 17.7601 17.8822L17.7643 17.8868L17.6812 17.9659L17.602 18.049L17.5981 18.045L14.473 21.0221C13.9343 21.5482 13.217 21.8395 12.4735 21.8336C11.7314 21.8276 11.0206 21.5265 10.4903 20.9938L7.34948 17.9971L7.34346 17.9907C5.97708 16.5753 5.21045 14.663 5.21045 12.6699C5.21045 10.6769 5.97728 8.76434 7.34365 7.34898C8.01846 6.65087 8.82119 6.09674 9.70546 5.71864ZM11.99 9.08199C12.1243 8.94405 12.3064 8.86657 12.4964 8.86657C12.6863 8.86657 12.8685 8.94405 13.0028 9.08199C13.1371 9.21992 13.2126 9.40699 13.2126 9.60206V12.3263L15.1097 14.2735C15.1763 14.3418 15.2291 14.4229 15.2651 14.5122C15.3011 14.6015 15.3196 14.6972 15.3196 14.7938C15.3196 14.8904 15.3011 14.9861 15.2651 15.0754C15.2291 15.1646 15.1763 15.2457 15.1097 15.314L15.0508 15.3745C14.999 15.4166 14.9417 15.4512 14.8804 15.4773C14.7935 15.5143 14.7003 15.5333 14.6062 15.5333C14.5121 15.5333 14.419 15.5143 14.332 15.4773C14.2451 15.4403 14.166 15.386 14.0995 15.3176L11.9927 13.1541C11.9257 13.0857 11.8714 13.0033 11.8351 12.9136C11.7988 12.824 11.7801 12.7277 11.7802 12.6306V9.60206C11.7802 9.40699 11.8556 9.21992 11.99 9.08199Z" fill="#454546"/>
</svg>
