<svg width="200" height="73" viewBox="0 0 200 73" fill="none" xmlns="http://www.w3.org/2000/svg">
<rect width="200" height="72.7864" rx="10.9866" fill="#090909"/>
<path d="M45.8433 37.4966C45.8827 34.4214 47.5278 31.5116 50.1376 29.9009C48.4912 27.5404 45.7336 26.0437 42.8646 25.9536C39.8045 25.6312 36.8379 27.7919 35.2786 27.7919C33.6891 27.7919 31.2882 25.9856 28.7029 26.039C25.333 26.1483 22.1915 28.0717 20.552 31.0294C17.0277 37.155 19.6565 46.1575 23.0325 51.109C24.7215 53.5335 26.6956 56.2419 29.2786 56.1458C31.8062 56.0406 32.7502 54.5278 35.8013 54.5278C38.824 54.5278 39.7097 56.1458 42.3451 56.0848C45.0573 56.0406 46.7662 53.6494 48.396 51.2019C49.6096 49.4742 50.5434 47.5649 51.163 45.5444C47.9756 44.1911 45.847 40.9709 45.8433 37.4966Z" fill="white"/>
<path d="M40.8654 22.6973C42.3442 20.9151 43.0728 18.6244 42.8964 16.3116C40.6371 16.5498 38.5501 17.6338 37.0513 19.3477C35.5856 21.0222 34.8229 23.2726 34.9671 25.497C37.2273 25.5203 39.4492 24.4657 40.8654 22.6973Z" fill="white"/>
<path d="M135.996 34.3204V38.0469H133.669V40.4907H135.996V48.7943C135.996 51.6297 137.274 52.7638 140.488 52.7638C141.053 52.7638 141.591 52.6963 142.062 52.6153V50.1985C141.658 50.239 141.403 50.266 140.959 50.266C139.52 50.266 138.888 49.5909 138.888 48.0517V40.4907H142.062V38.0469H138.888V34.3204H135.996Z" fill="white"/>
<path d="M150.25 52.9663C154.527 52.9663 157.15 50.0905 157.15 45.3244C157.15 40.5853 154.514 37.6959 150.25 37.6959C145.973 37.6959 143.337 40.5853 143.337 45.3244C143.337 50.0905 145.96 52.9663 150.25 52.9663ZM150.25 50.3875C147.735 50.3875 146.323 48.5378 146.323 45.3244C146.323 42.138 147.735 40.2747 150.25 40.2747C152.752 40.2747 154.177 42.138 154.177 45.3244C154.177 48.5243 152.752 50.3875 150.25 50.3875Z" fill="white"/>
<path d="M159.394 52.6828H162.285V44.0012C162.285 41.9354 163.832 40.5447 166.024 40.5447C166.535 40.5447 167.396 40.6393 167.638 40.7203V37.8579C167.329 37.7769 166.777 37.7364 166.347 37.7364C164.437 37.7364 162.81 38.7895 162.393 40.2342H162.178V37.9794H159.394V52.6828Z" fill="white"/>
<path d="M174.818 40.1667C176.956 40.1667 178.355 41.6654 178.422 43.9742H171.025C171.186 41.6789 172.679 40.1667 174.818 40.1667ZM178.409 48.7133C177.871 49.8609 176.674 50.4955 174.925 50.4955C172.612 50.4955 171.119 48.8618 171.025 46.283V46.121H181.367V45.1083C181.367 40.4907 178.906 37.6959 174.831 37.6959C170.702 37.6959 168.08 40.6798 168.08 45.3784C168.08 50.077 170.648 52.9663 174.845 52.9663C178.193 52.9663 180.534 51.3461 181.193 48.7133H178.409Z" fill="white"/>
<path d="M117.034 47.2531C117.257 50.8636 120.254 53.1726 124.714 53.1726C129.482 53.1726 132.465 50.7516 132.465 46.8892C132.465 43.8525 130.764 42.1732 126.638 41.2076L124.422 40.6618C121.801 40.0461 120.742 39.2204 120.742 37.779C120.742 35.9598 122.386 34.7703 124.854 34.7703C127.196 34.7703 128.813 35.9318 129.105 37.793H132.144C131.963 34.3925 128.98 31.9995 124.896 31.9995C120.505 31.9995 117.577 34.3925 117.577 37.9889C117.577 40.9557 119.236 42.719 122.874 43.5726L125.467 44.2024C128.13 44.8321 129.301 45.7557 129.301 47.2951C129.301 49.0863 127.461 50.3878 124.951 50.3878C122.261 50.3878 120.393 49.1703 120.128 47.2531H117.034Z" fill="white"/>
<path d="M87.0797 37.7364C85.0892 37.7364 83.3677 38.7355 82.48 40.4097H82.2649V37.9794H79.4809V57.5704H82.3725V50.455H82.6011C83.3677 52.0077 85.022 52.9258 87.1066 52.9258C90.8051 52.9258 93.1587 49.996 93.1587 45.3244C93.1587 40.6528 90.8051 37.7364 87.0797 37.7364ZM86.2593 50.32C83.8384 50.32 82.3187 48.4028 82.3187 45.3379C82.3187 42.2595 83.8384 40.3422 86.2727 40.3422C88.7205 40.3422 90.1865 42.219 90.1865 45.3244C90.1865 48.4433 88.7205 50.32 86.2593 50.32Z" fill="white"/>
<path d="M103.277 37.7364C101.286 37.7364 99.5649 38.7355 98.6772 40.4097H98.4621V37.9794H95.6781V57.5704H98.5696V50.455H98.7983C99.5649 52.0077 101.219 52.9258 103.304 52.9258C107.002 52.9258 109.356 49.996 109.356 45.3244C109.356 40.6528 107.002 37.7364 103.277 37.7364ZM102.456 50.32C100.036 50.32 98.5159 48.4028 98.5159 45.3379C98.5159 42.2595 100.036 40.3422 102.47 40.3422C104.918 40.3422 106.384 42.219 106.384 45.3244C106.384 48.4433 104.918 50.32 102.456 50.32Z" fill="white"/>
<path d="M74.2929 52.6828H77.6105L70.3479 32.4892H66.9884L59.7258 52.6828H62.932L64.786 47.323H72.4528L74.2929 52.6828ZM68.5079 36.1557H68.7448L71.6583 44.6921H65.5805L68.5079 36.1557Z" fill="white"/>
<path d="M59.6453 18.246V26.228H62.516C64.8853 26.228 66.2573 24.7622 66.2573 22.2121C66.2573 19.7008 64.8743 18.246 62.516 18.246H59.6453ZM60.8795 19.3744H62.3782C64.0257 19.3744 65.001 20.4254 65.001 22.2287C65.001 24.0596 64.0423 25.0996 62.3782 25.0996H60.8795V19.3744Z" fill="white"/>
<path d="M70.4592 26.3442C72.2114 26.3442 73.2859 25.166 73.2859 23.2133C73.2859 21.2718 72.2059 20.088 70.4592 20.088C68.707 20.088 67.6271 21.2718 67.6271 23.2133C67.6271 25.166 68.7015 26.3442 70.4592 26.3442ZM70.4592 25.2876C69.4289 25.2876 68.8503 24.5298 68.8503 23.2133C68.8503 21.9079 69.4289 21.1445 70.4592 21.1445C71.4841 21.1445 72.0682 21.9079 72.0682 23.2133C72.0682 24.5243 71.4841 25.2876 70.4592 25.2876Z" fill="white"/>
<path d="M82.4358 20.2042H81.2512L80.1822 24.8009H80.0886L78.8543 20.2042H77.7192L76.485 24.8009H76.3968L75.3224 20.2042H74.1212L75.7742 26.228H76.9919L78.2262 21.7917H78.3198L79.5596 26.228H80.7883L82.4358 20.2042Z" fill="white"/>
<path d="M83.8001 26.228H84.9848V22.7044C84.9848 21.7641 85.5413 21.1777 86.4174 21.1777C87.2935 21.1777 87.7122 21.659 87.7122 22.627V26.228H88.8969V22.3283C88.8969 20.8956 88.1585 20.088 86.8196 20.088C85.916 20.088 85.3209 20.4918 85.0288 21.1611H84.9407V20.2042H83.8001V26.228Z" fill="white"/>
<path d="M90.7626 26.228H91.9472V17.8533H90.7626V26.228Z" fill="white"/>
<path d="M96.4026 26.3442C98.1548 26.3442 99.2293 25.166 99.2293 23.2133C99.2293 21.2718 98.1493 20.088 96.4026 20.088C94.6504 20.088 93.5705 21.2718 93.5705 23.2133C93.5705 25.166 94.6449 26.3442 96.4026 26.3442ZM96.4026 25.2876C95.3723 25.2876 94.7937 24.5298 94.7937 23.2133C94.7937 21.9079 95.3723 21.1445 96.4026 21.1445C97.4275 21.1445 98.0116 21.9079 98.0116 23.2133C98.0116 24.5243 97.4275 25.2876 96.4026 25.2876Z" fill="white"/>
<path d="M102.759 25.3264C102.114 25.3264 101.646 25.0111 101.646 24.469C101.646 23.938 102.021 23.6558 102.847 23.6005L104.313 23.5065V24.0099C104.313 24.7566 103.652 25.3264 102.759 25.3264ZM102.456 26.3276C103.244 26.3276 103.9 25.9846 104.258 25.3817H104.351V26.228H105.492V22.1125C105.492 20.8403 104.643 20.088 103.139 20.088C101.778 20.088 100.808 20.7518 100.687 21.7862H101.833C101.966 21.3603 102.423 21.1169 103.084 21.1169C103.894 21.1169 104.313 21.4764 104.313 22.1125V22.6325L102.687 22.7265C101.26 22.8151 100.456 23.4401 100.456 24.5243C100.456 25.6251 101.299 26.3276 102.456 26.3276Z" fill="white"/>
<path d="M109.512 26.3276C110.339 26.3276 111.038 25.9348 111.397 25.2766H111.49V26.228H112.625V17.8533H111.441V21.1611H111.352C111.027 20.4973 110.333 20.1046 109.512 20.1046C107.997 20.1046 107.022 21.3105 107.022 23.2133C107.022 25.1217 107.986 26.3276 109.512 26.3276ZM109.848 21.1722C110.84 21.1722 111.463 21.9632 111.463 23.2189C111.463 24.48 110.846 25.26 109.848 25.26C108.845 25.26 108.245 24.4911 108.245 23.2133C108.245 21.9466 108.851 21.1722 109.848 21.1722Z" fill="white"/>
<path d="M120.307 26.3442C122.06 26.3442 123.134 25.166 123.134 23.2133C123.134 21.2718 122.054 20.088 120.307 20.088C118.555 20.088 117.475 21.2718 117.475 23.2133C117.475 25.166 118.55 26.3442 120.307 26.3442ZM120.307 25.2876C119.277 25.2876 118.698 24.5298 118.698 23.2133C118.698 21.9079 119.277 21.1445 120.307 21.1445C121.332 21.1445 121.916 21.9079 121.916 23.2133C121.916 24.5243 121.332 25.2876 120.307 25.2876Z" fill="white"/>
<path d="M124.702 26.228H125.887V22.7044C125.887 21.7641 126.443 21.1777 127.319 21.1777C128.195 21.1777 128.614 21.659 128.614 22.627V26.228H129.799V22.3283C129.799 20.8956 129.061 20.088 127.722 20.088C126.818 20.088 126.223 20.4918 125.931 21.1611H125.843V20.2042H124.702V26.228Z" fill="white"/>
<path d="M135.255 18.7051V20.2318H134.302V21.233H135.255V24.6349C135.255 25.7965 135.778 26.2612 137.095 26.2612C137.327 26.2612 137.547 26.2335 137.74 26.2003V25.2102C137.575 25.2268 137.47 25.2379 137.288 25.2379C136.699 25.2379 136.44 24.9613 136.44 24.3307V21.233H137.74V20.2318H136.44V18.7051H135.255Z" fill="white"/>
<path d="M139.33 26.228H140.515V22.71C140.515 21.7973 141.055 21.1833 142.025 21.1833C142.862 21.1833 143.308 21.67 143.308 22.6325V26.228H144.493V22.3393C144.493 20.9067 143.705 20.0935 142.427 20.0935C141.523 20.0935 140.889 20.4973 140.597 21.1722H140.504V17.8533H139.33V26.228Z" fill="white"/>
<path d="M148.767 21.1003C149.643 21.1003 150.216 21.7143 150.243 22.6602H147.213C147.279 21.7198 147.89 21.1003 148.767 21.1003ZM150.238 24.6017C150.017 25.0719 149.527 25.3319 148.811 25.3319C147.863 25.3319 147.251 24.6626 147.213 23.6061V23.5397H151.45V23.1248C151.45 21.233 150.442 20.088 148.772 20.088C147.081 20.088 146.006 21.3105 146.006 23.2354C146.006 25.1604 147.058 26.3442 148.778 26.3442C150.15 26.3442 151.108 25.6804 151.378 24.6017H150.238Z" fill="white"/>
</svg>
