<svg width="200" height="74" viewBox="0 0 200 74" fill="none" xmlns="http://www.w3.org/2000/svg">
<rect y="0.786377" width="200" height="72.2891" rx="10.9866" fill="#090909"/>
<g filter="url(#filter0_ii_877_445)">
<path d="M19.4907 19.1842C19.0687 19.6326 18.8193 20.3284 18.8193 21.2295V53.4244C18.8193 54.3269 19.0687 55.0213 19.4907 55.4697L19.598 55.5745L37.5629 37.5395V37.327V37.1144L19.598 19.0779L19.4907 19.1842Z" fill="url(#paint0_linear_877_445)"/>
<path d="M43.5501 43.5527L37.5627 37.5391V37.3266V37.114L43.5515 31.1019L43.6864 31.179L50.7816 35.2259C52.8073 36.3818 52.8073 38.2728 50.7816 39.4301L43.6864 43.477L43.5501 43.5527Z" fill="url(#paint1_linear_877_445)"/>
<g filter="url(#filter1_i_877_445)">
<path d="M43.6866 43.4755L37.5615 37.3265L19.4907 55.4693C20.1578 56.1797 21.2613 56.267 22.504 55.5595L43.6866 43.4755Z" fill="url(#paint2_linear_877_445)"/>
</g>
<path d="M43.6866 31.1779L22.504 19.0954C21.2613 18.3864 20.1578 18.4752 19.4907 19.1856L37.5629 37.3284L43.6866 31.1779Z" fill="url(#paint3_linear_877_445)"/>
</g>
<path d="M97.8652 39.0883C94.644 39.0883 92.0186 41.5372 92.0186 44.91C92.0186 48.2623 94.644 50.7317 97.8652 50.7317C101.088 50.7317 103.713 48.2623 103.713 44.91C103.712 41.5372 101.086 39.0883 97.8652 39.0883ZM97.8652 48.4403C96.0998 48.4403 94.5783 46.9852 94.5783 44.9114C94.5783 42.8157 96.1012 41.3825 97.8652 41.3825C99.6305 41.3825 101.152 42.8157 101.152 44.9114C101.152 46.9838 99.6305 48.4403 97.8652 48.4403ZM85.1092 39.0883C81.8881 39.0883 79.2627 41.5372 79.2627 44.91C79.2627 48.2623 81.8881 50.7317 85.1092 50.7317C88.3318 50.7317 90.9572 48.2623 90.9572 44.91C90.9572 41.5372 88.3318 39.0883 85.1092 39.0883ZM85.1092 48.4403C83.3439 48.4403 81.8223 46.9852 81.8223 44.9114C81.8223 42.8157 83.3453 41.3825 85.1092 41.3825C86.8746 41.3825 88.3961 42.8157 88.3961 44.9114C88.3975 46.9838 86.8746 48.4403 85.1092 48.4403ZM69.9375 40.876V43.3454H75.8511C75.6745 44.7348 75.2116 45.7491 74.5049 46.4541C73.6448 47.3137 72.2986 48.2623 69.9375 48.2623C66.2972 48.2623 63.4513 45.3289 63.4513 41.6905C63.4513 38.0521 66.2972 35.1186 69.9375 35.1186C71.9014 35.1186 73.3353 35.8907 74.394 36.8831L76.1374 35.1405C74.6583 33.7293 72.6957 32.6492 69.9375 32.6492C64.951 32.6492 60.7588 36.7065 60.7588 41.6905C60.7588 46.6745 64.951 50.7317 69.9375 50.7317C72.6286 50.7317 74.6596 49.8488 76.2469 48.1952C77.8794 46.5636 78.3875 44.2694 78.3875 42.4173C78.3875 41.8452 78.3437 41.3154 78.2547 40.8746L69.9375 40.876ZM131.989 42.7938C131.504 41.4934 130.025 39.0883 127.002 39.0883C124.002 39.0883 121.508 41.4482 121.508 44.91C121.508 48.1733 123.98 50.7317 127.288 50.7317C129.958 50.7317 131.502 49.1001 132.143 48.1514L130.158 46.8278C129.496 47.7983 128.591 48.4375 127.288 48.4375C125.987 48.4375 125.06 47.8421 124.464 46.6731L132.253 43.4536L131.989 42.7938ZM124.045 44.7348C123.98 42.4844 125.789 41.3387 127.091 41.3387C128.106 41.3387 128.966 41.8465 129.254 42.5734L124.045 44.7348ZM117.714 50.3799H120.272V33.268H117.714V50.3799ZM113.52 40.3901H113.433C112.859 39.7056 111.755 39.0883 110.366 39.0883C107.453 39.0883 104.784 41.6467 104.784 44.9333C104.784 48.1966 107.453 50.7331 110.366 50.7331C111.756 50.7331 112.859 50.1157 113.433 49.4108H113.52V50.2485C113.52 52.4756 112.329 53.6665 110.41 53.6665C108.843 53.6665 107.872 52.5427 107.475 51.5941L105.247 52.5208C105.887 54.0635 107.585 55.9607 110.41 55.9607C113.411 55.9607 115.949 54.1963 115.949 49.8954V39.4428H113.522L113.52 40.3901ZM110.587 48.4403C108.822 48.4403 107.344 46.9619 107.344 44.9333C107.344 42.8814 108.822 41.3825 110.587 41.3825C112.329 41.3825 113.697 42.8814 113.697 44.9333C113.697 46.9619 112.329 48.4403 110.587 48.4403ZM143.978 33.268H137.854V50.3799H140.409V43.8971H143.976C146.808 43.8971 149.594 41.8479 149.594 38.5832C149.594 35.3185 146.81 33.268 143.978 33.268ZM144.043 41.5153H140.409V35.6497H144.043C145.954 35.6497 147.039 37.2308 147.039 38.5832C147.039 39.9082 145.954 41.5153 144.043 41.5153ZM159.837 39.0582C157.987 39.0582 156.071 39.8726 155.278 41.6782L157.546 42.624C158.031 41.6782 158.934 41.3688 159.881 41.3688C161.202 41.3688 162.546 42.1614 162.568 43.5699V43.7465C162.105 43.4823 161.113 43.0867 159.903 43.0867C157.458 43.0867 154.968 44.4295 154.968 46.9386C154.968 49.2287 156.973 50.703 159.219 50.703C160.937 50.703 161.884 49.9323 162.479 49.0289H162.566V50.3498H165.034V43.7889C165.036 40.7528 162.765 39.0582 159.837 39.0582ZM159.527 48.4362C158.692 48.4362 157.524 48.0173 157.524 46.9824C157.524 45.6615 158.978 45.155 160.234 45.155C161.356 45.155 161.886 45.3973 162.568 45.7272C162.369 47.3137 161.004 48.4362 159.527 48.4362ZM174.021 39.4319L171.092 46.851H171.004L167.964 39.4319H165.211L169.77 49.8009L167.171 55.5692H169.836L176.863 39.4319H174.021ZM151.005 50.3799H153.559V33.268H151.005V50.3799Z" fill="white"/>
<path d="M69.6188 23.1463C69.6188 24.2726 69.2795 25.1691 68.5994 25.8384C67.8277 26.6341 66.8206 27.0319 65.5836 27.0319C64.3987 27.0319 63.3902 26.6287 62.5624 25.8223C61.7332 25.0145 61.3186 24.0145 61.3186 22.821C61.3186 21.6262 61.7332 20.6262 62.5624 19.8198C63.3902 19.012 64.3987 18.6088 65.5836 18.6088C66.172 18.6088 66.7344 18.7217 67.268 18.9461C67.8031 19.1719 68.2313 19.4716 68.5515 19.8466L67.8304 20.5563C67.2872 19.9179 66.5387 19.5993 65.5823 19.5993C64.7175 19.5993 63.9704 19.8977 63.3396 20.4945C62.7088 21.0912 62.3941 21.8667 62.3941 22.8197C62.3941 23.7726 62.7088 24.5481 63.3396 25.1449C63.9704 25.7416 64.7175 26.04 65.5823 26.04C66.499 26.04 67.2639 25.7403 67.8756 25.1395C68.2724 24.7484 68.5023 24.204 68.5638 23.5065H65.5823V22.5374H69.56C69.601 22.7484 69.6188 22.9514 69.6188 23.1463Z" fill="white"/>
<path d="M75.9269 19.7782H72.1886V22.3345H75.5602V23.3036H72.1886V25.86H75.9269V26.8519H71.1337V18.7876H75.9269V19.7782Z" fill="white"/>
<path d="M80.3751 26.8519H79.3201V19.7782H77.0268V18.7876H82.6684V19.7782H80.3751V26.8519Z" fill="white"/>
<path d="M86.75 26.8519V18.7876H87.805V26.8519H86.75Z" fill="white"/>
<path d="M92.4835 26.8519H91.4285V19.7782H89.1352V18.7876H94.7768V19.7782H92.4835V26.8519Z" fill="white"/>
<path d="M105.456 25.8102C104.649 26.6247 103.646 27.032 102.446 27.032C101.246 27.032 100.243 26.6247 99.437 25.8102C98.6297 24.9957 98.2274 23.9985 98.2274 22.8197C98.2274 21.641 98.6297 20.6437 99.437 19.8292C100.243 19.0147 101.246 18.6061 102.446 18.6061C103.639 18.6061 104.641 19.0161 105.451 19.8346C106.261 20.6531 106.666 21.6477 106.666 22.8197C106.666 23.9985 106.262 24.9957 105.456 25.8102ZM100.216 25.1342C100.823 25.739 101.566 26.0401 102.446 26.0401C103.326 26.0401 104.07 25.7377 104.676 25.1342C105.284 24.5294 105.589 23.7579 105.589 22.8197C105.589 21.8816 105.284 21.1101 104.676 20.5053C104.07 19.9005 103.326 19.5994 102.446 19.5994C101.566 19.5994 100.823 19.9018 100.216 20.5053C99.6094 21.1101 99.3042 21.8816 99.3042 22.8197C99.3042 23.7579 99.6094 24.5294 100.216 25.1342Z" fill="white"/>
<path d="M108.146 26.8519V18.7876H109.43L113.42 25.0603H113.465L113.42 23.5066V18.7876H114.475V26.8519H113.373L109.199 20.2741H109.153L109.199 21.8278V26.8519H108.146Z" fill="white"/>
<path d="M69.6188 23.1463C69.6188 24.2726 69.2795 25.1691 68.5994 25.8384C67.8277 26.6341 66.8206 27.0319 65.5836 27.0319C64.3987 27.0319 63.3902 26.6287 62.5624 25.8223C61.7332 25.0145 61.3186 24.0145 61.3186 22.821C61.3186 21.6262 61.7332 20.6262 62.5624 19.8198C63.3902 19.012 64.3987 18.6088 65.5836 18.6088C66.172 18.6088 66.7344 18.7217 67.268 18.9461C67.8031 19.1719 68.2313 19.4716 68.5515 19.8466L67.8304 20.5563C67.2872 19.9179 66.5387 19.5993 65.5823 19.5993C64.7175 19.5993 63.9704 19.8977 63.3396 20.4945C62.7088 21.0912 62.3941 21.8667 62.3941 22.8197C62.3941 23.7726 62.7088 24.5481 63.3396 25.1449C63.9704 25.7416 64.7175 26.04 65.5823 26.04C66.499 26.04 67.2639 25.7403 67.8756 25.1395C68.2724 24.7484 68.5023 24.204 68.5638 23.5065H65.5823V22.5374H69.56C69.601 22.7484 69.6188 22.9514 69.6188 23.1463Z" stroke="white" stroke-width="0.0561723" stroke-miterlimit="10"/>
<path d="M75.9269 19.7782H72.1886V22.3345H75.5602V23.3036H72.1886V25.86H75.9269V26.8519H71.1337V18.7876H75.9269V19.7782Z" stroke="white" stroke-width="0.0561723" stroke-miterlimit="10"/>
<path d="M80.3751 26.8519H79.3201V19.7782H77.0268V18.7876H82.6684V19.7782H80.3751V26.8519Z" stroke="white" stroke-width="0.0561723" stroke-miterlimit="10"/>
<path d="M86.75 26.8519V18.7876H87.805V26.8519H86.75Z" stroke="white" stroke-width="0.0561723" stroke-miterlimit="10"/>
<path d="M92.4835 26.8519H91.4285V19.7782H89.1352V18.7876H94.7768V19.7782H92.4835V26.8519Z" stroke="white" stroke-width="0.0561723" stroke-miterlimit="10"/>
<path d="M105.456 25.8102C104.649 26.6247 103.646 27.032 102.446 27.032C101.246 27.032 100.243 26.6247 99.437 25.8102C98.6297 24.9957 98.2274 23.9985 98.2274 22.8197C98.2274 21.641 98.6297 20.6437 99.437 19.8292C100.243 19.0147 101.246 18.6061 102.446 18.6061C103.639 18.6061 104.641 19.0161 105.451 19.8346C106.261 20.6531 106.666 21.6477 106.666 22.8197C106.666 23.9985 106.262 24.9957 105.456 25.8102ZM100.216 25.1342C100.823 25.739 101.566 26.0401 102.446 26.0401C103.326 26.0401 104.07 25.7377 104.676 25.1342C105.284 24.5294 105.589 23.7579 105.589 22.8197C105.589 21.8816 105.284 21.1101 104.676 20.5053C104.07 19.9005 103.326 19.5994 102.446 19.5994C101.566 19.5994 100.823 19.9018 100.216 20.5053C99.6094 21.1101 99.3042 21.8816 99.3042 22.8197C99.3042 23.7579 99.6094 24.5294 100.216 25.1342Z" stroke="white" stroke-width="0.0561723" stroke-miterlimit="10"/>
<path d="M108.146 26.8519V18.7876H109.43L113.42 25.0603H113.465L113.42 23.5066V18.7876H114.475V26.8519H113.373L109.199 20.2741H109.153L109.199 21.8278V26.8519H108.146Z" stroke="white" stroke-width="0.0561723" stroke-miterlimit="10"/>
<defs>
<filter id="filter0_ii_877_445" x="18.8193" y="18.6061" width="33.4814" height="37.4421" filterUnits="userSpaceOnUse" color-interpolation-filters="sRGB">
<feFlood flood-opacity="0" result="BackgroundImageFix"/>
<feBlend mode="normal" in="SourceGraphic" in2="BackgroundImageFix" result="shape"/>
<feColorMatrix in="SourceAlpha" type="matrix" values="0 0 0 0 0 0 0 0 0 0 0 0 0 0 0 0 0 0 127 0" result="hardAlpha"/>
<feOffset dy="-0.218359"/>
<feComposite in2="hardAlpha" operator="arithmetic" k2="-1" k3="1"/>
<feColorMatrix type="matrix" values="0 0 0 0 0 0 0 0 0 0 0 0 0 0 0 0 0 0 0.12 0"/>
<feBlend mode="normal" in2="shape" result="effect1_innerShadow_877_445"/>
<feColorMatrix in="SourceAlpha" type="matrix" values="0 0 0 0 0 0 0 0 0 0 0 0 0 0 0 0 0 0 127 0" result="hardAlpha"/>
<feOffset dy="0.218359"/>
<feComposite in2="hardAlpha" operator="arithmetic" k2="-1" k3="1"/>
<feColorMatrix type="matrix" values="0 0 0 0 1 0 0 0 0 1 0 0 0 0 1 0 0 0 0.25 0"/>
<feBlend mode="normal" in2="effect1_innerShadow_877_445" result="effect2_innerShadow_877_445"/>
</filter>
<filter id="filter1_i_877_445" x="19.4907" y="37.3265" width="24.1958" height="18.7217" filterUnits="userSpaceOnUse" color-interpolation-filters="sRGB">
<feFlood flood-opacity="0" result="BackgroundImageFix"/>
<feBlend mode="normal" in="SourceGraphic" in2="BackgroundImageFix" result="shape"/>
<feColorMatrix in="SourceAlpha" type="matrix" values="0 0 0 0 0 0 0 0 0 0 0 0 0 0 0 0 0 0 127 0" result="hardAlpha"/>
<feOffset dy="-0.218359"/>
<feComposite in2="hardAlpha" operator="arithmetic" k2="-1" k3="1"/>
<feColorMatrix type="matrix" values="0 0 0 0 0 0 0 0 0 0 0 0 0 0 0 0 0 0 0.08 0"/>
<feBlend mode="normal" in2="shape" result="effect1_innerShadow_877_445"/>
</filter>
<linearGradient id="paint0_linear_877_445" x1="35.9705" y1="20.8889" x2="11.5406" y2="45.2237" gradientUnits="userSpaceOnUse">
<stop stop-color="#00A0FF"/>
<stop offset="0.0066" stop-color="#00A1FF"/>
<stop offset="0.2601" stop-color="#00BEFF"/>
<stop offset="0.5122" stop-color="#00D2FF"/>
<stop offset="0.7604" stop-color="#00DFFF"/>
<stop offset="1" stop-color="#00E3FF"/>
</linearGradient>
<linearGradient id="paint1_linear_877_445" x1="53.4185" y1="37.3266" x2="18.3328" y2="37.3266" gradientUnits="userSpaceOnUse">
<stop stop-color="#FFE000"/>
<stop offset="0.4087" stop-color="#FFBD00"/>
<stop offset="0.7754" stop-color="#FFA500"/>
<stop offset="1" stop-color="#FF9C00"/>
</linearGradient>
<linearGradient id="paint2_linear_877_445" x1="40.3603" y1="40.6658" x2="7.23032" y2="73.667" gradientUnits="userSpaceOnUse">
<stop stop-color="#FF3A44"/>
<stop offset="1" stop-color="#C31162"/>
</linearGradient>
<linearGradient id="paint3_linear_877_445" x1="14.9395" y1="8.46827" x2="29.733" y2="23.2042" gradientUnits="userSpaceOnUse">
<stop stop-color="#32A071"/>
<stop offset="0.0685" stop-color="#2DA771"/>
<stop offset="0.4762" stop-color="#15CF74"/>
<stop offset="0.8009" stop-color="#06E775"/>
<stop offset="1" stop-color="#00F076"/>
</linearGradient>
</defs>
</svg>
