<svg width="130" height="50" viewBox="0 0 130 50" fill="none" xmlns="http://www.w3.org/2000/svg">
<path d="M29.2814 42.0228V22.0796H34.4267V42.0228H29.2814Z" fill="white"/>
<path d="M15.0186 42.5812C10.8172 42.5812 7.34714 41.1851 4.60828 38.3931C1.86943 35.6011 0.5 32.1576 0.5 28.0626C0.5 23.941 1.86943 20.4975 4.60828 17.732C7.34714 14.94 10.8172 13.544 15.0186 13.544C17.5447 13.544 19.8714 14.1423 21.9987 15.3388C24.1526 16.5088 25.8278 18.1043 27.0244 20.1252L22.2779 22.8773C21.5865 21.6276 20.6027 20.657 19.3263 19.9657C18.05 19.2477 16.614 18.8887 15.0186 18.8887C12.3063 18.8887 10.1126 19.7396 8.43736 21.4414C6.78873 23.1433 5.96442 25.3503 5.96442 28.0626C5.96442 30.7482 6.78873 32.942 8.43736 34.6438C10.1126 36.3456 12.3063 37.1965 15.0186 37.1965C16.614 37.1965 18.05 36.8508 19.3263 36.1595C20.6293 35.4415 21.6131 34.471 22.2779 33.2478L27.0244 35.9999C25.8278 38.0208 24.1658 39.6296 22.0386 40.8262C19.9113 41.9962 17.5713 42.5812 15.0186 42.5812Z" fill="white"/>
<path d="M44.8398 27.0255H49.347V22.0796H44.8398V16.4955L39.6945 18.0511V22.0796H36.2244V27.0255H39.6945V35.3219C39.6945 38.0607 40.4124 39.962 41.8483 41.0256C43.3108 42.0892 45.8104 42.4216 49.347 42.0228V37.3561C48.3631 37.4092 47.5388 37.4225 46.874 37.3959C46.2092 37.3428 45.704 37.1566 45.3583 36.8375C45.0126 36.5184 44.8398 36.0132 44.8398 35.3219V27.0255Z" fill="white"/>
<path d="M51.7781 42.0228V22.0796H56.9235V42.0228H51.7781Z" fill="white"/>
<path fill-rule="evenodd" clip-rule="evenodd" d="M80.7384 22.0796H75.593V24.4329C74.0508 22.4918 71.8836 21.5212 69.0916 21.5212C66.4325 21.5212 64.1457 22.545 62.2311 24.5925C60.3432 26.6134 59.3992 29.0996 59.3992 32.0512C59.3992 35.0028 60.3432 37.5023 62.2311 39.5498C64.1457 41.5707 66.4325 42.5812 69.0916 42.5812C71.8836 42.5812 74.0508 41.6106 75.593 39.6695V42.0228H80.7384V22.0796ZM70.0489 37.6752C68.4534 37.6752 67.1372 37.1566 66.1001 36.1196C65.0631 35.056 64.5445 33.6998 64.5445 32.0512C64.5445 30.4026 65.0631 29.0597 66.1001 28.0227C67.1372 26.959 68.4534 26.4272 70.0489 26.4272C71.6443 26.4272 72.9605 26.959 73.9976 28.0227C75.0612 29.0597 75.593 30.4026 75.593 32.0512C75.593 33.6998 75.0612 35.056 73.9976 36.1196C72.9605 37.1566 71.6443 37.6752 70.0489 37.6752Z" fill="white"/>
<path fill-rule="evenodd" clip-rule="evenodd" d="M95.8144 21.5212C98.5001 21.5212 100.787 22.545 102.675 24.5925C104.589 26.6134 105.547 29.0996 105.547 32.0512C105.547 35.0028 104.589 37.5023 102.675 39.5498C100.787 41.5707 98.5001 42.5812 95.8144 42.5812C93.0224 42.5812 90.8685 41.6106 89.3529 39.6695V50H84.2075V22.0796H89.3529V24.4329C90.8685 22.4918 93.0224 21.5212 95.8144 21.5212ZM90.9084 36.1196C91.9455 37.1566 93.2617 37.6752 94.8572 37.6752C96.4526 37.6752 97.7689 37.1566 98.8059 36.1196C99.8695 35.056 100.401 33.6998 100.401 32.0512C100.401 30.4026 99.8695 29.0597 98.8059 28.0227C97.7689 26.959 96.4526 26.4272 94.8572 26.4272C93.2617 26.4272 91.9455 26.959 90.9084 28.0227C89.8714 29.0597 89.3529 30.4026 89.3529 32.0512C89.3529 33.6998 89.8714 35.056 90.9084 36.1196Z" fill="white"/>
<path fill-rule="evenodd" clip-rule="evenodd" d="M126.446 24.5925C124.558 22.545 122.271 21.5212 119.586 21.5212C116.794 21.5212 114.64 22.4918 113.124 24.4329V22.0796H107.979V50H113.124V39.6695C114.64 41.6106 116.794 42.5812 119.586 42.5812C122.271 42.5812 124.558 41.5707 126.446 39.5498C128.361 37.5023 129.318 35.0028 129.318 32.0512C129.318 29.0996 128.361 26.6134 126.446 24.5925ZM118.628 37.6752C117.033 37.6752 115.717 37.1566 114.68 36.1196C113.643 35.056 113.124 33.6998 113.124 32.0512C113.124 30.4026 113.643 29.0597 114.68 28.0227C115.717 26.959 117.033 26.4272 118.628 26.4272C120.224 26.4272 121.54 26.959 122.577 28.0227C123.641 29.0597 124.173 30.4026 124.173 32.0512C124.173 33.6998 123.641 35.056 122.577 36.1196C121.54 37.1566 120.224 37.6752 118.628 37.6752Z" fill="white"/>
<path d="M30.7833 17.7879C30.4742 17.4194 30.4725 16.8801 30.7963 16.5245C34.2085 12.7762 38.6856 10.6838 43.3436 10.6838C48.0016 10.6838 52.4787 12.7762 55.8909 16.5245C56.2147 16.8801 56.213 17.4194 55.9039 17.7879C55.5077 18.2603 54.7819 18.2585 54.3561 17.8126C51.3203 14.6336 47.4084 12.8655 43.3436 12.8655C39.2788 12.8655 35.3669 14.6336 32.3311 17.8126C31.9053 18.2585 31.1795 18.2603 30.7833 17.7879Z" fill="white"/>
<path fill-rule="evenodd" clip-rule="evenodd" d="M44.234 0C44.7257 2.14933e-08 45.1243 0.398609 45.1243 0.890318V7.65674C45.1243 8.14845 44.7257 8.54705 44.234 8.54705C43.7423 8.54705 43.3436 8.14845 43.3436 7.65674V0.890318C43.3436 0.398609 43.7423 -2.14933e-08 44.234 0Z" fill="white"/>
<path fill-rule="evenodd" clip-rule="evenodd" d="M50.5489 9.34202C50.2012 8.99433 50.2012 8.43061 50.5489 8.08292L55.3335 3.29834C55.6812 2.95065 56.2449 2.95065 56.5926 3.29834C56.9403 3.64603 56.9403 4.20975 56.5926 4.55744L51.808 9.34202C51.4603 9.68971 50.8966 9.68971 50.5489 9.34202Z" fill="white"/>
<path fill-rule="evenodd" clip-rule="evenodd" d="M30.7241 3.64398C31.0718 3.29629 31.6356 3.29629 31.9832 3.64398L36.7678 8.42856C37.1155 8.77625 37.1155 9.33997 36.7678 9.68766C36.4201 10.0354 35.8564 10.0354 35.5087 9.68766L30.7241 4.90308C30.3765 4.55539 30.3765 3.99167 30.7241 3.64398Z" fill="white"/>
</svg>
