<svg width="28" height="28" viewBox="0 0 28 28" fill="none" xmlns="http://www.w3.org/2000/svg">
<path d="M13.9968 9.62931C11.5484 9.62931 9.55042 11.6273 9.55042 14.0756C9.55042 16.524 11.5484 18.522 13.9968 18.522C16.4451 18.522 18.4431 16.524 18.4431 14.0756C18.4431 11.6273 16.4451 9.62931 13.9968 9.62931ZM27.3325 14.0756C27.3325 12.2344 27.3491 10.4098 27.2457 8.57192C27.1423 6.43715 26.6553 4.54254 25.0943 2.98148C23.5299 1.41709 21.6386 0.93343 19.5038 0.830027C17.6626 0.726624 15.838 0.743302 14.0001 0.743302C12.1588 0.743302 10.3343 0.726624 8.49637 0.830027C6.36159 0.93343 4.46698 1.42043 2.90592 2.98148C1.34153 4.54587 0.857869 6.43715 0.754466 8.57192C0.651062 10.4132 0.66774 12.2377 0.66774 14.0756C0.66774 15.9136 0.651062 17.7415 0.754466 19.5794C0.857869 21.7141 1.34487 23.6087 2.90592 25.1698C4.47031 26.7342 6.36159 27.2179 8.49637 27.3213C10.3376 27.4247 12.1622 27.408 14.0001 27.408C15.8413 27.408 17.6659 27.4247 19.5038 27.3213C21.6386 27.2179 23.5332 26.7309 25.0943 25.1698C26.6587 23.6054 27.1423 21.7141 27.2457 19.5794C27.3525 17.7415 27.3325 15.9169 27.3325 14.0756ZM13.9968 20.9169C10.2109 20.9169 7.15546 17.8615 7.15546 14.0756C7.15546 10.2898 10.2109 7.23435 13.9968 7.23435C17.7827 7.23435 20.8381 10.2898 20.8381 14.0756C20.8381 17.8615 17.7827 20.9169 13.9968 20.9169ZM21.1182 8.55191C20.2343 8.55191 19.5205 7.83809 19.5205 6.95416C19.5205 6.07023 20.2343 5.35642 21.1182 5.35642C22.0022 5.35642 22.716 6.07023 22.716 6.95416C22.7163 7.16406 22.6751 7.37194 22.5949 7.56591C22.5147 7.75987 22.397 7.93611 22.2486 8.08453C22.1002 8.23295 21.924 8.35063 21.73 8.43083C21.536 8.51103 21.3281 8.55217 21.1182 8.55191Z" fill="#4479AB"/>
</svg>
