<svg width="15" height="17" viewBox="0 0 15 17" fill="none" xmlns="http://www.w3.org/2000/svg">
<path fill-rule="evenodd" clip-rule="evenodd" d="M4.70546 0.718698C5.58973 0.340595 6.53811 0.145935 7.49597 0.145935C8.45383 0.145935 9.40222 0.340595 10.2865 0.718698C11.1707 1.09676 11.9732 1.65075 12.648 2.34874C14.0118 3.75572 14.7813 5.65804 14.7893 7.64331C14.7972 9.5945 14.0691 11.4716 12.7601 12.8822L12.7643 12.8868L12.6812 12.9659L12.602 13.049L12.5981 13.0451L9.473 16.0222C8.93426 16.5483 8.21702 16.8396 7.47351 16.8336C6.73145 16.8277 6.02064 16.5266 5.49032 15.9938L2.34948 12.9971L2.34346 12.9908C0.977084 11.5754 0.210449 9.66303 0.210449 7.66999C0.210449 5.67695 0.977278 3.7644 2.34365 2.34904C3.01846 1.65093 3.82119 1.0968 4.70546 0.718698ZM6.98996 4.08205C7.12428 3.94412 7.30644 3.86663 7.49639 3.86663C7.68634 3.86663 7.86851 3.94412 8.00282 4.08205C8.13714 4.21998 8.21259 4.40706 8.21259 4.60212V7.32633L10.1097 9.2736C10.1763 9.34191 10.2291 9.42301 10.2651 9.51227C10.3011 9.60153 10.3196 9.69721 10.3196 9.79384C10.3196 9.89047 10.3011 9.98615 10.2651 10.0754C10.2291 10.1647 10.1763 10.2458 10.1097 10.3141L10.0508 10.3746C9.99899 10.4167 9.94168 10.4513 9.88042 10.4774C9.79349 10.5143 9.70032 10.5334 9.60623 10.5334C9.51214 10.5334 9.41897 10.5143 9.33205 10.4774C9.24514 10.4404 9.16604 10.386 9.09952 10.3177L6.99273 8.15413C6.92567 8.08573 6.87142 8.00332 6.83512 7.9137C6.79883 7.8241 6.78015 7.72772 6.78019 7.63062V4.60212C6.78019 4.40706 6.85565 4.21998 6.98996 4.08205Z" fill="#454546"/>
</svg>
